<svg xmlns="http://www.w3.org/2000/svg" viewBox="0 0 720 210" role="img" aria-labelledby="title"><title id="title">Planet Computer Professional</title>
<g fill="none" stroke="#fff" stroke-width="10" stroke-linecap="round" stroke-linejoin="round"><path d="M63 113c0-49 29-82 68-82 26 0 49 16 60 38M191 111c-2 45-27 72-62 72-28 0-52-19-61-43"/><path d="M88 80c-42 7-69 20-69 35 0 23 61 42 136 42 17 0 31-1 45-3M98 70c18-2 38-3 57-2 76 2 137 20 137 42 0 15-24 28-62 35"/></g><path d="M230 78c39 8 62 19 62 32" fill="none" stroke="#ed2636" stroke-width="10" stroke-linecap="round"/>
<g transform="translate(323 30)" fill="none" stroke="#fff" stroke-width="7" stroke-linecap="round" stroke-linejoin="round"><path d="M0 49V0h20c21 0 21 26 0 26H0M51 0v49h26M92 49V14c0-19 31-19 31 0v35M92 27h31M139 49V0l31 49V0M217 0h-30v49h30M187 24h23M235 0h34M252 0v49"/></g>
<text x="318" y="144" fill="#ed2636" font-family="Arial,Helvetica,sans-serif" font-weight="900" font-size="57" letter-spacing="-2">COMPUTER</text><text x="322" y="176" fill="#fff" font-family="Arial,Helvetica,sans-serif" font-weight="700" font-size="20" letter-spacing="5">PROFESSIONAL</text></svg>
